<svg xmlns="http://www.w3.org/2000/svg" width="32" height="32" viewBox="0 0 512 512">
  <style>
    .icon {
      fill: #4f39f6;
      fill-rule: evenodd;
    }
    @media (prefers-color-scheme:dark) {
      .icon {
        fill: #87fce8;
      }
    }
  </style>
  <path id="Puzzle_4_2" data-name="Puzzle 4 2" class="icon" d="M377.365,122.093s-102.629,4.965-139.049,6.61c-22.511,1.033-34.755-18.167-14.9-38.008,15.259-15.209,20.816-19.5,18.209-47.9C238.643,10.273,206.06-.3,179.318,0c-27.972.333-58.592,15.114-67.611,41.928-5.931,17.585-5.759,35.311,9.584,46.6,8.37,6.17,26.9,15.268,6.115,31.914-11.214,8.991-124.134-1.674-124.134-1.674S-1.7,215.61,1.838,243.2c2.023,15.85,21.673,23.267,34.547,6.122,19.858-26.421,74.763-9.181,77.541,42.688,2.921,54.416-55.214,62.8-67.623,41.577C34.719,313.747,1.63,308.812.2,334.112-2.023,373.5,16.444,498.845,16.444,498.845s74.221,17.514,107.673,12.127c15.539-2.529,22.672-29.313,8.269-41.891-13.249-11.557-16.027-73.338,53.119-66.241,54.1,5.553,45.065,52.7,31.3,61.306-13.243,8.254-12.612,33.981,14.908,41.291,37.658,10.031,151.887-14.7,151.887-14.7s-15.092-92.478-10.042-122.444c5.4-32.087,42.245-12.727,46.849-6.6,29.8,39.652,91.6,17.976,91.6-48.585,0-96.938-88.249-80.458-96.554-57.172-9.18,25.644-39.556,19.069-42.857,3.314C364.836,222.446,377.365,122.093,377.365,122.093Z"/>
</svg>
